<svg xmlns="http://www.w3.org/2000/svg" viewBox="0 0 669.22 151.06"><title>Asset 2</title><g id="Layer_2" data-name="Layer 2"><g id="Layer_1-2" data-name="Layer 1"><path d="M51.14,76.82a16.36,16.36,0,0,1,0,23.21,15.78,15.78,0,0,1-11.55,4.83H16.49a17.12,17.12,0,0,1-6.72-1.47v1.47a12.86,12.86,0,0,0,3.88,9.45,12.86,12.86,0,0,0,9.45,3.88H28c3.21,0,4.83,1.61,4.83,4.83S31.25,128,28,128H23.1a22.29,22.29,0,0,1-16.38-6.72A22.29,22.29,0,0,1,0,104.86V88.06A16.22,16.22,0,0,1,4.83,76.71,16.05,16.05,0,0,1,16.49,72h23.1A15.78,15.78,0,0,1,51.14,76.82Zm-41.37,12a6.68,6.68,0,0,0,2.1,4.46,6.33,6.33,0,0,0,4.62,1.84h23.1a6.39,6.39,0,0,0,4.67-1.94,6.52,6.52,0,0,0,1.94-4.78,6.64,6.64,0,0,0-6.61-6.62H16.49a6.37,6.37,0,0,0-4.62,1.84,6.72,6.72,0,0,0-2.1,4.47Z"/><path d="M85.68,128a22.95,22.95,0,0,1-23.1-23.1V95.09A23.11,23.11,0,0,1,85.68,72h16.49a16.12,16.12,0,0,1,6.61,1.36V72A13.26,13.26,0,0,0,95.45,58.65H90.62q-4.94,0-4.94-4.93t4.94-4.94h4.83A23.32,23.32,0,0,1,118.55,72v32.87A23.13,23.13,0,0,1,95.45,128ZM76.23,85.75a12.72,12.72,0,0,0-3.88,9.34v9.77a13.25,13.25,0,0,0,13.33,13.33h9.77a13.25,13.25,0,0,0,13.33-13.33V88.06a6.82,6.82,0,0,0-2.1-4.47,6.26,6.26,0,0,0-4.51-1.84H85.68A12.93,12.93,0,0,0,76.23,85.75Z"/><path d="M177.14,78.81A22.24,22.24,0,0,1,184,95.09V128a23.11,23.11,0,0,1-23.1,23.1H156q-4.93,0-4.93-4.94t4.93-4.83h4.83A13.26,13.26,0,0,0,174.2,128v-1.37a15.11,15.11,0,0,1-6.62,1.37H151.1a22.95,22.95,0,0,1-23.1-23.1V95.09A23.11,23.11,0,0,1,151.1,72h9.76A22.26,22.26,0,0,1,177.14,78.81Zm-9.56,39.38a6.17,6.17,0,0,0,4.52-1.89,7,7,0,0,0,2.1-4.51V95.09a12.73,12.73,0,0,0-3.89-9.34,12.93,12.93,0,0,0-9.45-4H151.1a12.93,12.93,0,0,0-9.45,4,12.73,12.73,0,0,0-3.89,9.34v9.77a13.26,13.26,0,0,0,13.34,13.33Z"/><path d="M247.07,76.82a16.36,16.36,0,0,1,0,23.21,15.76,15.76,0,0,1-11.55,4.83h-23.1a17.16,17.16,0,0,1-6.72-1.47v1.47A13.25,13.25,0,0,0,219,118.19H224q4.83,0,4.83,4.83T224,128H219a22.95,22.95,0,0,1-23.1-23.1V88.06A16.31,16.31,0,0,1,212.42,72h23.1A15.76,15.76,0,0,1,247.07,76.82Zm-41.37,12a6.77,6.77,0,0,0,2.1,4.46,6.36,6.36,0,0,0,4.62,1.84h23.1a6.37,6.37,0,0,0,4.67-1.94,6.49,6.49,0,0,0,1.94-4.78,6.64,6.64,0,0,0-6.61-6.62h-23.1a6.4,6.4,0,0,0-4.62,1.84,6.82,6.82,0,0,0-2.1,4.47Z"/><path d="M304.65,127.11H284a29.63,29.63,0,0,1-7-.63A12.6,12.6,0,0,1,272.2,124Q267,120,267,111.49V85.6a27.16,27.16,0,0,1,.63-7.07,11.46,11.46,0,0,1,3.05-4.45q3.89-4,11.55-4h22.15v3.47H282.81a22.09,22.09,0,0,0-5.88.57,9.34,9.34,0,0,0-3.68,2.31,8.43,8.43,0,0,0-2.31,3.4,19.63,19.63,0,0,0-.52,5.35V111c0,4.55,1.33,7.93,4,10.17a10.28,10.28,0,0,0,3.93,2,23.18,23.18,0,0,0,5.83.58h20.48Z"/><path d="M320.4,70.09h29.74a29,29,0,0,1,8.33.89,11.73,11.73,0,0,1,5.07,3.51q3.9,4.2,3.9,11.53V111.7a24.46,24.46,0,0,1-.63,6.5,12.31,12.31,0,0,1-2.63,4.4q-4.1,4.52-11.23,4.51H335.62q-6.83,0-11-4a13.81,13.81,0,0,1-4.2-10.5V103.9q0-6.83,4-10.86t11-4.05h28.77V85.24a13,13,0,0,0-2.74-8.14,9.19,9.19,0,0,0-3.8-2.81,17.66,17.66,0,0,0-5.8-.73H320.4Zm43.78,42.42V92.35H335.13a11,11,0,0,0-8.27,3.1,11.5,11.5,0,0,0-3,8.35v8.5a15.81,15.81,0,0,0,.64,5.2,7,7,0,0,0,2.63,3.2,13.24,13.24,0,0,0,8.31,3h17.69Q364.19,123.75,364.18,112.51Z"/><path d="M387,146V85.27q0-8.16,4.72-12.14a11.46,11.46,0,0,1,4.41-2.41,30.13,30.13,0,0,1,7.25-.63h13.34a31.84,31.84,0,0,1,8,.74,12.54,12.54,0,0,1,5,2.93q4.31,4,4.3,11.42V111a24.52,24.52,0,0,1-.84,7.28,11.7,11.7,0,0,1-3.31,4.88,14.7,14.7,0,0,1-4.72,3.14,19.78,19.78,0,0,1-6.56.84H390.43V146Zm3.46-60.4v38.14h28.25q12,0,12-12.58V85.29c0-3.63-1.09-6.46-3.25-8.48a8.6,8.6,0,0,0-3.89-2.62,25.65,25.65,0,0,0-6.72-.63h-13a31.63,31.63,0,0,0-6.41.42,8.17,8.17,0,0,0-3.57,2.3Q390.43,79.54,390.43,85.61Z"/><path d="M453.54,70.09h29.75a29.08,29.08,0,0,1,8.33.89,11.77,11.77,0,0,1,5.06,3.51q3.9,4.2,3.9,11.53V111.7a24.46,24.46,0,0,1-.63,6.5,12.27,12.27,0,0,1-2.62,4.4q-4.09,4.52-11.24,4.51H468.77q-6.82,0-11-4a13.81,13.81,0,0,1-4.2-10.5V103.9q0-6.83,4-10.86t11-4.05h28.77V85.24a13,13,0,0,0-2.75-8.14,9.22,9.22,0,0,0-3.79-2.81,17.77,17.77,0,0,0-5.81-.73H453.54Zm43.79,42.42V92.35H468.27a11,11,0,0,0-8.26,3.1,11.5,11.5,0,0,0-3,8.35v8.5a16.14,16.14,0,0,0,.63,5.2,7.11,7.11,0,0,0,2.63,3.2,13.28,13.28,0,0,0,8.32,3h17.68Q497.33,123.75,497.33,112.51Z"/><path d="M556.34,127.11H535.65a29.63,29.63,0,0,1-7-.63,12.6,12.6,0,0,1-4.73-2.51q-5.25-4-5.25-12.48V85.6a27.16,27.16,0,0,1,.63-7.07,11.46,11.46,0,0,1,3.05-4.45q3.88-4,11.55-4H556v3.47H534.5a22.09,22.09,0,0,0-5.88.57,9.34,9.34,0,0,0-3.68,2.31,8.43,8.43,0,0,0-2.31,3.4,19.63,19.63,0,0,0-.52,5.35V111c0,4.55,1.33,7.93,4,10.17a10.25,10.25,0,0,0,3.94,2,23,23,0,0,0,5.82.58h20.48Z"/><path d="M571,61.27c0-2,.84-3,2.52-3a3.49,3.49,0,0,1,2.41.84,2.7,2.7,0,0,1,.95,2.1,3.15,3.15,0,0,1-.95,2.31,3,3,0,0,1-2.2.94,2.48,2.48,0,0,1-1.89-.94A3.23,3.23,0,0,1,571,61.27Zm1.36,65.84V70h3.36v57.12Z"/><path d="M595.29,127.11V51.4h3.47V70.09h16.06v3.47H598.76v53.55Z"/><path d="M622.38,146v-3.78H654a18.46,18.46,0,0,0,5.25-.52,9.79,9.79,0,0,0,3.41-2.24,9.22,9.22,0,0,0,2.47-3.44,13.92,13.92,0,0,0,.63-4.65v-4.27H638.56a23.24,23.24,0,0,1-6.67-.73,13.05,13.05,0,0,1-4.67-2.94q-4.85-4.08-4.84-11.74V70.09h3.47V111.7q0,5.76,3.25,8.91t9.46,3.14h27.19V70.09h3.47V131q0,7.22-4,11.1T653.89,146Z"/><path d="M350.61,11.34a10.48,10.48,0,0,1,3.22,7.7,10.59,10.59,0,0,1-3.22,7.77,10.52,10.52,0,0,1-7.7,3.22h-15.4a11.52,11.52,0,0,1-4.48-1v1a8.84,8.84,0,0,0,8.89,8.89h3.29q3.23,0,3.22,3.22t-3.22,3.29h-3.29A15.3,15.3,0,0,1,316.52,30V18.83a10.88,10.88,0,0,1,11-10.71h15.4A10.48,10.48,0,0,1,350.61,11.34Zm-27.58,8a4.54,4.54,0,0,0,1.4,3,4.25,4.25,0,0,0,3.08,1.23h15.4a4.28,4.28,0,0,0,3.12-1.3A4.32,4.32,0,0,0,347.32,19a4.4,4.4,0,0,0-4.41-4.41h-15.4a4.24,4.24,0,0,0-3.08,1.22,4.57,4.57,0,0,0-1.4,3Z"/><path d="M334.87,0c-68.67,2.3-66.28,49.19-5.28,53.22C405.15,54.88,402.84.85,334.87,0Zm-.19,51.57c-50.81-2.21-46.51-48.69,0-49.78C385.49,4,381.19,50.49,334.68,51.57Z"/></g></g></svg>